<?xml version="1.0" encoding="UTF-8"?>
<svg xmlns="http://www.w3.org/2000/svg" width="480" height="240" viewBox="0 0 480 240" role="img" aria-label="Navigation">
<rect x="0" y="0" width="480" height="240" fill="#07111C"/>
<text x="12" y="25" fill="#F4F8FB" font-family="sans-serif" font-size="18" font-weight="600">Navigation</text>
<line x1="12" y1="35" x2="468" y2="35" stroke="#2D485E" stroke-width="1"/>
<rect x="12" y="46" width="456" height="34" rx="6" fill="#173447" stroke="#78FFE0" stroke-width="2"/>
<g transform="translate(22 55)" fill="none" stroke="#34E1C1" stroke-width="1.5" stroke-linecap="round" stroke-linejoin="round">
<polyline points="8,1 14,8 8,15 2,8 8,1"/>
<polyline points="8,4 10,8 8,12 6,8 8,4"/>
</g>
<text x="52" y="68" fill="#F4F8FB" font-family="sans-serif" font-size="14">Destination</text>
<rect x="12" y="86" width="456" height="34" rx="6" fill="#122334" stroke="#2D485E" stroke-width="1"/>
<g transform="translate(22 95)" fill="none" stroke="#34E1C1" stroke-width="1.5" stroke-linecap="round" stroke-linejoin="round">
<polyline points="8,1 14,8 8,15 2,8 8,1"/>
<polyline points="8,4 10,8 8,12 6,8 8,4"/>
</g>
<text x="52" y="108" fill="#F4F8FB" font-family="sans-serif" font-size="14">Route overview</text>
<rect x="12" y="126" width="456" height="34" rx="6" fill="#122334" stroke="#2D485E" stroke-width="1"/>
<g transform="translate(22 135)" fill="none" stroke="#34E1C1" stroke-width="1.5" stroke-linecap="round" stroke-linejoin="round">
<polyline points="8,1 14,8 8,15 2,8 8,1"/>
<polyline points="8,4 10,8 8,12 6,8 8,4"/>
</g>
<text x="52" y="148" fill="#F4F8FB" font-family="sans-serif" font-size="14">Saved</text>
<line x1="12" y1="215" x2="468" y2="215" stroke="#2D485E" stroke-width="1"/>
<text x="12" y="232" fill="#B8C9D8" font-family="sans-serif" font-size="10">Back</text>
<text x="468" y="232" fill="#B8C9D8" font-family="sans-serif" font-size="10" text-anchor="end">Home</text>
</svg>
